<?xml version="1.0" encoding="UTF-8"?>
<svg version="1.1" xmlns="http://www.w3.org/2000/svg" width="64" height="64">
<path d="M0 0 C2.64 0 5.28 0 8 0 C8.495 5.94 8.495 5.94 9 12 C9.99 11.67 10.98 11.34 12 11 C12.33 10.01 12.66 9.02 13 8 C13.66 8 14.32 8 15 8 C15.33 7.01 15.66 6.02 16 5 C16.66 5 17.32 5 18 5 C18 4.01 18 3.02 18 2 C18.66 2 19.32 2 20 2 C20 1.34 20 0.68 20 0 C23.63 0 27.26 0 31 0 C31 0.66 31 1.32 31 2 C31.66 2 32.32 2 33 2 C33 5.63 33 9.26 33 13 C32.34 13 31.68 13 31 13 C30.67 13.99 30.34 14.98 30 16 C28.33333333 16.66666667 26.66666667 17.33333333 25 18 C24.505 19.485 24.505 19.485 24 21 C23.34 21 22.68 21 22 21 C21.505 22.485 21.505 22.485 21 24 C23.31 24.66 25.62 25.32 28 26 C28 28.97 28 31.94 28 35 C21.54208424 38.45423401 15.23659445 38.68441919 8 39 C7.67 39.99 7.34 40.98 7 42 C6.34 42 5.68 42 5 42 C4.896875 42.763125 4.79375 43.52625 4.6875 44.3125 C3.95288806 47.18416484 3.3283935 48.23042094 1 50 C0.34 50 -0.32 50 -1 50 C-1.33 50.99 -1.66 51.98 -2 53 C-2.66 53 -3.32 53 -4 53 C-4.33 53.99 -4.66 54.98 -5 56 C-5.66 56 -6.32 56 -7 56 C-7.33 56.99 -7.66 57.98 -8 59 C-8.66 59 -9.32 59 -10 59 C-10.33 59.99 -10.66 60.98 -11 62 C-11.66 62 -12.32 62 -13 62 C-13 62.66 -13 63.32 -13 64 C-17.29 64 -21.58 64 -26 64 C-26 63.34 -26 62.68 -26 62 C-26.99 62 -27.98 62 -29 62 C-29 61.01 -29 60.02 -29 59 C-29.66 59 -30.32 59 -31 59 C-31 55.7 -31 52.4 -31 49 C-30.34 49 -29.68 49 -29 49 C-28.67 48.01 -28.34 47.02 -28 46 C-27.34 46 -26.68 46 -26 46 C-25.67 45.01 -25.34 44.02 -25 43 C-24.34 43 -23.68 43 -23 43 C-22.67 42.01 -22.34 41.02 -22 40 C-21.34 40 -20.68 40 -20 40 C-19.67 39.01 -19.34 38.02 -19 37 C-18.34 37 -17.68 37 -17 37 C-16.731875 36.195625 -16.46375 35.39125 -16.1875 34.5625 C-15.795625 33.716875 -15.40375 32.87125 -15 32 C-14.01 31.67 -13.02 31.34 -12 31 C-11.67 30.01 -11.34 29.02 -11 28 C-10.34 28 -9.68 28 -9 28 C-8.67 27.01 -8.34 26.02 -8 25 C-7.33484375 24.64292969 -6.6696875 24.28585938 -5.984375 23.91796875 C-3.14790145 21.17641656 -3.43855881 18.81144054 -3.29296875 14.98242188 C-3.27878906 14.10134766 -3.26460937 13.22027344 -3.25 12.3125 C-3.22035156 11.41982422 -3.19070312 10.52714844 -3.16015625 9.60742188 C-3.08948573 7.40485723 -3.03678061 5.20334869 -3 3 C-2.01 2.67 -1.02 2.34 0 2 C0 1.34 0 0.68 0 0 Z " fill="#42311E" transform="translate(31,0)"/>
<path d="M0 0 C0.33 0 0.66 0 1 0 C1 1.65 1 3.3 1 5 C-4.86099454 8.8515107 -11.14641138 8.70511266 -18 9 C-18.33 9.99 -18.66 10.98 -19 12 C-19.66 12 -20.32 12 -21 12 C-21.103125 12.763125 -21.20625 13.52625 -21.3125 14.3125 C-22.04711194 17.18416484 -22.6716065 18.23042094 -25 20 C-25.66 20 -26.32 20 -27 20 C-27.33 20.99 -27.66 21.98 -28 23 C-28.66 23 -29.32 23 -30 23 C-30.33 23.99 -30.66 24.98 -31 26 C-31.66 26 -32.32 26 -33 26 C-33.33 26.99 -33.66 27.98 -34 29 C-34.66 29 -35.32 29 -36 29 C-36.33 29.99 -36.66 30.98 -37 32 C-37.66 32 -38.32 32 -39 32 C-39 32.66 -39 33.32 -39 34 C-43.29 34 -47.58 34 -52 34 C-52 33.34 -52 32.68 -52 32 C-52.99 32 -53.98 32 -55 32 C-55 31.01 -55 30.02 -55 29 C-55.66 29 -56.32 29 -57 29 C-57 25.7 -57 22.4 -57 19 C-54.525 19.99 -54.525 19.99 -52 21 C-51.67 20.34 -51.34 19.68 -51 19 C-49.02 19 -47.04 19 -45 19 C-45 19.99 -45 20.98 -45 22 C-44.01 22 -43.02 22 -42 22 C-42 22.99 -42 23.98 -42 25 C-41.34 25 -40.68 25 -40 25 C-40 24.01 -40 23.02 -40 22 C-39.01 22 -38.02 22 -37 22 C-37 21.01 -37 20.02 -37 19 C-36.01 19 -35.02 19 -34 19 C-34 17.35 -34 15.7 -34 14 C-33.01 14 -32.02 14 -31 14 C-31 13.01 -31 12.02 -31 11 C-30.01 11 -29.02 11 -28 11 C-28 10.01 -28 9.02 -28 8 C-27.01 8 -26.02 8 -25 8 C-25 7.01 -25 6.02 -25 5 C-24.01 5 -23.02 5 -22 5 C-22 4.01 -22 3.02 -22 2 C-14.66666667 2 -7.33333333 2 0 2 C0 1.34 0 0.68 0 0 Z " fill="#271E0A" transform="translate(57,30)"/>
<path d="M0 0 C2.475 0.99 2.475 0.99 5 2 C5.33 1.34 5.66 0.68 6 0 C7.98 0 9.96 0 12 0 C12 0.99 12 1.98 12 3 C12.99 3 13.98 3 15 3 C15 3.99 15 4.98 15 6 C15.66 6 16.32 6 17 6 C17 5.01 17 4.02 17 3 C17.99 3 18.98 3 20 3 C20 2.01 20 1.02 20 0 C21.32 0.33 22.64 0.66 24 1 C23.27876953 1.59748047 23.27876953 1.59748047 22.54296875 2.20703125 C20.62608175 4.43450247 20.52258357 5.78834669 20.3125 8.6875 C20.24675781 9.49574219 20.18101563 10.30398437 20.11328125 11.13671875 C20.07589844 11.75160156 20.03851562 12.36648437 20 13 C19.34 13 18.68 13 18 13 C18 13.66 18 14.32 18 15 C13.71 15 9.42 15 5 15 C5 14.34 5 13.68 5 13 C4.01 13 3.02 13 2 13 C2 12.01 2 11.02 2 10 C1.34 10 0.68 10 0 10 C0 6.7 0 3.4 0 0 Z " fill="#231506" transform="translate(0,49)"/>
<path d="M0 0 C3.63 0 7.26 0 11 0 C11 0.66 11 1.32 11 2 C11.66 2 12.32 2 13 2 C13 5.63 13 9.26 13 13 C12.34 13 11.68 13 11 13 C10.67 13.99 10.34 14.98 10 16 C7.4375 17.1875 7.4375 17.1875 5 18 C5 18.66 5 19.32 5 20 C2.03 20 -0.94 20 -4 20 C-4 19.01 -4 18.02 -4 17 C-3.34 17 -2.68 17 -2 17 C-2 16.34 -2 15.68 -2 15 C-1.01 15 -0.02 15 1 15 C1 14.01 1 13.02 1 12 C1.99 12 2.98 12 4 12 C4 11.01 4 10.02 4 9 C4.99 9 5.98 9 7 9 C6.73323796 7.01508358 6.73323796 7.01508358 6 5 C5.01 4.67 4.02 4.34 3 4 C2.34 5.32 1.68 6.64 1 8 C0.01 7.67 -0.98 7.34 -2 7 C-2 5.35 -2 3.7 -2 2 C-1.34 2 -0.68 2 0 2 C0 1.34 0 0.68 0 0 Z " fill="#2B2511" transform="translate(51,0)"/>
<path d="M0 0 C2.31 0 4.62 0 7 0 C7 4.95 7 9.9 7 15 C7.99 15 8.98 15 10 15 C10 15.66 10 16.32 10 17 C9.01 17 8.02 17 7 17 C7 17.99 7 18.98 7 20 C6.195625 20.12375 5.39125 20.2475 4.5625 20.375 C3.716875 20.58125 2.87125 20.7875 2 21 C1.67 21.66 1.34 22.32 1 23 C0.01 23 -0.98 23 -2 23 C-2 16.07 -2 9.14 -2 2 C-1.34 2 -0.68 2 0 2 C0 1.34 0 0.68 0 0 Z " fill="#3B3222" transform="translate(31,0)"/>
<path d="M0 0 C0.33 0 0.66 0 1 0 C1.33 3.96 1.66 7.92 2 12 C2.99 11.67 3.98 11.34 5 11 C5.33 10.01 5.66 9.02 6 8 C6.66 8 7.32 8 8 8 C8.33 7.01 8.66 6.02 9 5 C9.66 5 10.32 5 11 5 C11 5.66 11 6.32 11 7 C12.97536745 6.65213292 12.97536745 6.65213292 15 6 C15.33 5.34 15.66 4.68 16 4 C17.32 4.33 18.64 4.66 20 5 C20 6.32 20 7.64 20 9 C19.01 9 18.02 9 17 9 C17 9.99 17 10.98 17 12 C16.01 12 15.02 12 14 12 C14 12.99 14 13.98 14 15 C9.38 15 4.76 15 0 15 C0 10.05 0 5.1 0 0 Z " fill="#493B27" transform="translate(38,0)"/>
<path d="M0 0 C6.6 0 13.2 0 20 0 C15.71042811 3.21717892 14.38879324 3.43056034 9.25 3.6875 C8.07953125 3.75324219 6.9090625 3.81898437 5.703125 3.88671875 C4.81109375 3.92410156 3.9190625 3.96148437 3 4 C2.67 4.99 2.34 5.98 2 7 C1.34 7 0.68 7 0 7 C-0.33 7.99 -0.66 8.98 -1 10 C-1 8.68 -1 7.36 -1 6 C-1.66 5.67 -2.32 5.34 -3 5 C-1.68 4.01 -0.36 3.02 1 2 C0.67 1.34 0.34 0.68 0 0 Z " fill="#303422" transform="translate(36,35)"/>
<path d="M0 0 C3.63 0 7.26 0 11 0 C11 0.66 11 1.32 11 2 C11.66 2.33 12.32 2.66 13 3 C12.01 3 11.02 3 10 3 C10 3.99 10 4.98 10 6 C7.61435923 5.42415568 5.33317216 4.77772405 3 4 C2.34 5.32 1.68 6.64 1 8 C0.01 7.67 -0.98 7.34 -2 7 C-2 5.35 -2 3.7 -2 2 C-1.34 2 -0.68 2 0 2 C0 1.34 0 0.68 0 0 Z " fill="#302D1B" transform="translate(51,0)"/>
<path d="M0 0 C0.33 0 0.66 0 1 0 C1 1.65 1 3.3 1 5 C-2.08277856 5.1974877 -5.1662285 5.38123332 -8.25 5.5625 C-9.12269531 5.61857422 -9.99539062 5.67464844 -10.89453125 5.73242188 C-11.73886719 5.78076172 -12.58320312 5.82910156 -13.453125 5.87890625 C-14.22817383 5.9260376 -15.00322266 5.97316895 -15.80175781 6.02172852 C-18.03112585 5.99969234 -19.86898567 5.6303897 -22 5 C-22 4.01 -22 3.02 -22 2 C-14.66666667 2 -7.33333333 2 0 2 C0 1.34 0 0.68 0 0 Z " fill="#1E1405" transform="translate(57,30)"/>
<path d="M0 0 C0.99 0 1.98 0 3 0 C3 4.95 3 9.9 3 15 C3.99 15 4.98 15 6 15 C6 15.66 6 16.32 6 17 C5.01 17 4.02 17 3 17 C3 17.99 3 18.98 3 20 C2.01 20 1.02 20 0 20 C0 13.4 0 6.8 0 0 Z " fill="#131104" transform="translate(35,0)"/>
<path d="M0 0 C0.99 0 1.98 0 3 0 C3 2.31 3 4.62 3 7 C4.32 7.66 5.64 8.32 7 9 C2.71 9 -1.58 9 -6 9 C-6 8.01 -6 7.02 -6 6 C-5.01 6 -4.02 6 -3 6 C-3 5.01 -3 4.02 -3 3 C-2.01 3 -1.02 3 0 3 C0 2.01 0 1.02 0 0 Z " fill="#221305" transform="translate(44,20)"/>
<path d="M0 0 C0 0.66 0 1.32 0 2 C-0.66 2 -1.32 2 -2 2 C-2 2.99 -2 3.98 -2 5 C-2.99 5 -3.98 5 -5 5 C-5 5.99 -5 6.98 -5 8 C-7.96175123 7.38722388 -9.38058783 6.74627478 -12 5 C-11.67 4.01 -11.34 3.02 -11 2 C-10.01 2 -9.02 2 -8 2 C-8 1.34 -8 0.68 -8 0 C-4.94736336 -0.98120464 -3.05263664 -0.98120464 0 0 Z " fill="#412918" transform="translate(49,15)"/>
<path d="M0 0 C0.99 0 1.98 0 3 0 C3 6.6 3 13.2 3 20 C2.01 20 1.02 20 0 20 C0 13.4 0 6.8 0 0 Z " fill="#0F1401" transform="translate(29,3)"/>
<path d="M0 0 C0.99 0 1.98 0 3 0 C3 0.99 3 1.98 3 3 C3.61875 2.835 4.2375 2.67 4.875 2.5 C9.21573965 1.80548166 13.61865933 1.54247947 18 2 C18.66 2.66 19.32 3.32 20 4 C19.34 4 18.68 4 18 4 C18 4.66 18 5.32 18 6 C13.71 6 9.42 6 5 6 C5 5.34 5 4.68 5 4 C4.01 4 3.02 4 2 4 C2 3.01 2 2.02 2 1 C1.34 0.67 0.68 0.34 0 0 Z " fill="#343A26" transform="translate(0,58)"/>
<path d="M0 0 C-0.99 0.495 -0.99 0.495 -2 1 C-2.33 1.99 -2.66 2.98 -3 4 C-0.03 4.495 -0.03 4.495 3 5 C3 5.33 3 5.66 3 6 C0.69 6 -1.62 6 -4 6 C-4 6.66 -4 7.32 -4 8 C-5.32 7.67 -6.64 7.34 -8 7 C-8 4.69 -8 2.38 -8 0 C-4.71023192 -1.09658936 -3.28696233 -0.79953138 0 0 Z " fill="#3E472E" transform="translate(55,20)"/>
<path d="M0 0 C2.31 0.66 4.62 1.32 7 2 C6.01 2.495 6.01 2.495 5 3 C4.67 3.99 4.34 4.98 4 6 C3.34 6 2.68 6 2 6 C1.67 6.99 1.34 7.98 1 9 C0.34 9 -0.32 9 -1 9 C-1.33 9.66 -1.66 10.32 -2 11 C-2.25 3.375 -2.25 3.375 0 0 Z " fill="#2E311A" transform="translate(22,50)"/>
<path d="M0 0 C2.64 0 5.28 0 8 0 C8 2.97 8 5.94 8 9 C7.34 8.01 6.68 7.02 6 6 C5.34 6 4.68 6 4 6 C4 5.01 4 4.02 4 3 C2.68 3 1.36 3 0 3 C0 2.01 0 1.02 0 0 Z M1 6 C1.99 6.33 2.98 6.66 4 7 C3.01 7.33 2.02 7.66 1 8 C1 7.34 1 6.68 1 6 Z " fill="#29301A" transform="translate(51,26)"/>
<path d="M0 0 C0.99 0.33 1.98 0.66 3 1 C3.185625 2.7015625 3.185625 2.7015625 3.375 4.4375 C3.684375 6.2009375 3.684375 6.2009375 4 8 C4.66 8.33 5.32 8.66 6 9 C5.67 9.99 5.34 10.98 5 12 C4.34 12 3.68 12 3 12 C3 11.01 3 10.02 3 9 C2.01 9 1.02 9 0 9 C0 6.03 0 3.06 0 0 Z " fill="#101202" transform="translate(0,49)"/>
<path d="M0 0 C0 3.63 0 7.26 0 11 C-0.99 11.33 -1.98 11.66 -3 12 C-3 8.37 -3 4.74 -3 1 C-1 0 -1 0 0 0 Z " fill="#3C2A1A" transform="translate(35,9)"/>
<path d="M0 0 C0.66 0 1.32 0 2 0 C1.34 2.31 0.68 4.62 0 7 C-1.98 7 -3.96 7 -6 7 C-5.34 6.67 -4.68 6.34 -4 6 C-3.67 5.01 -3.34 4.02 -3 3 C-2.34 3 -1.68 3 -1 3 C-0.67 2.01 -0.34 1.02 0 0 Z " fill="#49513B" transform="translate(47,5)"/>
<path d="M0 0 C1.21236328 0.04060547 1.21236328 0.04060547 2.44921875 0.08203125 C3.06410156 0.11683594 3.67898437 0.15164062 4.3125 0.1875 C2.40848862 2.09151138 0.97824314 3.12270439 -1.734375 3.38671875 C-3.71983273 3.3761578 -5.7044914 3.28665043 -7.6875 3.1875 C-5.26849268 0.20484049 -3.789448 -0.16475861 0 0 Z " fill="#282F19" transform="translate(51.6875,34.8125)"/>
<path d="M0 0 C0.99 0 1.98 0 3 0 C3 2.31 3 4.62 3 7 C2.01 7 1.02 7 0 7 C-0.93423645 3.98968256 -1.04449911 3.13349732 0 0 Z " fill="#131004" transform="translate(61,3)"/>
<path d="M0 0 C2.97 0.495 2.97 0.495 6 1 C5.01 1.495 5.01 1.495 4 2 C3.67 2.99 3.34 3.98 3 5 C2.34 5 1.68 5 1 5 C0.67 5.66 0.34 6.32 0 7 C0 4.69 0 2.38 0 0 Z " fill="#495437" transform="translate(20,54)"/>
<path d="M0 0 C0.33 0 0.66 0 1 0 C1 1.98 1 3.96 1 6 C-0.98 6 -2.96 6 -5 6 C-4.34 5.67 -3.68 5.34 -3 5 C-2.67 4.01 -2.34 3.02 -2 2 C-1.34 2 -0.68 2 0 2 C0 1.34 0 0.68 0 0 Z " fill="#545C39" transform="translate(11,38)"/>
<path d="M0 0 C0.99 0 1.98 0 3 0 C2.625 2.4375 2.625 2.4375 2 5 C1.01 5.495 1.01 5.495 0 6 C0 4.02 0 2.04 0 0 Z M-1 6 C-1 9 -1 9 -1 9 Z " fill="#231F0C" transform="translate(20,29)"/>
</svg>
